<svg width="330" height="330" viewBox="0 0 330 330" fill="none" xmlns="http://www.w3.org/2000/svg">
<path d="M5 169H325M167 5V325M11.5 172H165M165 172H317.5M165 172V11M165 172V319.5M86.3011 92.9943L52.1003 130.433C50.9374 131.706 50.2926 133.368 50.2926 135.092C50.2926 138.907 53.3854 142 57.2005 142H113.254C116.49 142 119.114 139.377 119.114 136.141C119.114 132.905 116.49 130.281 113.254 130.281H69.0145C68.677 130.281 68.4034 130.008 68.4034 129.67C68.4034 129.515 68.4623 129.366 68.5681 129.253L92.9062 103.222C99.1562 96.5099 104.039 90.8281 107.555 86.1761C111.106 81.4886 113.592 77.245 115.012 73.4453C116.468 69.6101 117.196 65.6861 117.196 61.6733C117.196 56.0625 115.793 50.9666 112.988 46.3857C110.183 41.8047 106.312 38.1648 101.376 35.4659C96.4396 32.767 90.7756 31.4176 84.3835 31.4176C78.027 31.4176 72.2919 32.767 67.1783 35.4659C62.1001 38.1648 58.0874 41.929 55.1399 46.7585C53.196 49.9437 51.8931 53.4688 51.2313 57.3337C50.6453 60.7553 53.5329 63.5909 57.0043 63.5909C60.4757 63.5909 63.1689 60.7303 64.0107 57.3625C64.4257 55.7021 65.0199 54.1561 65.7933 52.7244C67.4979 49.6349 69.8949 47.2379 72.9844 45.5334C76.1094 43.7933 79.767 42.9233 83.9574 42.9233C87.8991 42.9233 91.4503 43.6868 94.6108 45.2138C97.7713 46.7408 100.257 48.907 102.068 51.7124C103.915 54.5178 104.838 57.8381 104.838 61.6733C104.838 65.0114 104.163 68.2074 102.814 71.2614C101.5 74.2798 99.4759 77.5114 96.7415 80.956C94.0071 84.3651 90.527 88.3778 86.3011 92.9943ZM251.236 299.491C243.92 299.491 237.457 298.195 231.847 295.603C226.271 292.975 221.921 289.371 218.796 284.79C215.671 280.173 214.126 274.918 214.162 269.023C214.126 264.406 215.032 260.145 216.879 256.239C218.725 252.297 221.246 249.012 224.442 246.384C227.585 243.794 231.081 242.127 234.929 241.385C235.118 241.348 235.256 241.184 235.256 240.992C235.256 240.811 235.133 240.653 234.958 240.606C229.878 239.223 225.822 236.32 222.791 231.896C219.702 227.35 218.175 222.183 218.21 216.395C218.175 210.855 219.577 205.901 222.418 201.533C225.259 197.165 229.165 193.721 234.137 191.2C239.144 188.678 244.844 187.418 251.236 187.418C257.557 187.418 263.203 188.678 268.175 191.2C273.146 193.721 277.053 197.165 279.893 201.533C282.77 205.901 284.226 210.855 284.261 216.395C284.226 222.183 282.646 227.35 279.521 231.896C276.491 236.318 272.488 239.221 267.512 240.604C267.338 240.653 267.216 240.811 267.216 240.991C267.216 241.184 267.354 241.348 267.543 241.385C271.354 242.128 274.796 243.795 277.869 246.384C281.03 249.012 283.551 252.297 285.433 256.239C287.315 260.145 288.274 264.406 288.31 269.023C288.274 274.918 286.676 280.173 283.516 284.79C280.391 289.371 276.04 292.975 270.465 295.603C264.925 298.195 258.516 299.491 251.236 299.491ZM251.236 287.773C256.172 287.773 260.433 286.974 264.02 285.376C267.607 283.778 270.376 281.523 272.33 278.611C274.283 275.699 275.277 272.29 275.312 268.384C275.277 264.264 274.212 260.624 272.116 257.464C270.021 254.303 267.163 251.817 263.54 250.006C259.954 248.195 255.852 247.29 251.236 247.29C246.584 247.29 242.429 248.195 238.771 250.006C235.149 251.817 232.29 254.303 230.195 257.464C228.136 260.624 227.124 264.264 227.159 268.384C227.124 272.29 228.065 275.699 229.982 278.611C231.935 281.523 234.723 283.778 238.345 285.376C241.967 286.974 246.264 287.773 251.236 287.773ZM251.236 235.997C255.142 235.997 258.604 235.216 261.623 233.653C264.677 232.091 267.074 229.907 268.814 227.102C270.554 224.296 271.442 221.011 271.477 217.247C271.442 213.554 270.572 210.34 268.867 207.606C267.163 204.836 264.801 202.705 261.783 201.214C258.764 199.687 255.249 198.923 251.236 198.923C247.152 198.923 243.583 199.687 240.529 201.214C237.475 202.705 235.114 204.836 233.445 207.606C231.776 210.34 230.959 213.554 230.994 217.247C230.959 221.011 231.793 224.296 233.498 227.102C235.238 229.907 237.635 232.091 240.689 233.653C243.743 235.216 247.259 235.997 251.236 235.997ZM251.875 143.491C243.849 143.491 237.013 141.308 231.367 136.94C225.721 132.536 221.406 126.162 218.423 117.817C215.44 109.436 213.949 99.3153 213.949 87.4545C213.949 75.6648 215.44 65.5973 218.423 57.2521C221.442 48.8714 225.774 42.4794 231.42 38.076C237.102 33.6371 243.92 31.4176 251.875 31.4176C259.83 31.4176 266.63 33.6371 272.276 38.076C277.958 42.4794 282.29 48.8714 285.273 57.2521C288.292 65.5973 289.801 75.6648 289.801 87.4545C289.801 99.3153 288.31 109.436 285.327 117.817C282.344 126.162 278.029 132.536 272.383 136.94C266.737 141.308 259.901 143.491 251.875 143.491ZM251.875 131.773C259.83 131.773 266.009 127.937 270.412 120.267C274.815 112.597 277.017 101.659 277.017 87.4545C277.017 78.0085 276.005 69.9652 273.981 63.3246C271.992 56.6839 269.116 51.6236 265.352 48.1435C261.623 44.6634 257.131 42.9233 251.875 42.9233C243.991 42.9233 237.83 46.8118 233.391 54.5888C228.952 62.3303 226.733 73.2855 226.733 87.4545C226.733 96.9006 227.727 104.926 229.716 111.531C231.705 118.136 234.563 123.161 238.292 126.606C242.056 130.05 246.584 131.773 251.875 131.773ZM100.371 195.909C96.8994 195.909 94.0852 198.723 94.0852 202.195V298.714C94.0852 302.186 96.8994 305 100.371 305C103.842 305 106.656 302.186 106.656 298.714V202.195C106.656 198.723 103.842 195.909 100.371 195.909ZM121.571 276.768C121.571 280.005 118.948 282.628 115.712 282.628H51.1625C46.5086 282.628 42.7358 278.855 42.7358 274.201C42.7358 272.607 43.1878 271.046 44.0392 269.699L89.1799 198.276C90.1114 196.803 91.7332 195.909 93.4767 195.909C96.2839 195.909 98.5597 198.185 98.5597 200.992V209.307C98.5597 211.204 97.022 212.741 95.1253 212.741C93.9472 212.741 92.8514 213.345 92.222 214.341L57.1136 269.895C57.0468 270.001 57.0114 270.123 57.0114 270.248C57.0114 270.613 57.3073 270.909 57.6723 270.909H115.712C118.948 270.909 121.571 273.532 121.571 276.768ZM45 325H285C307.091 325 325 307.091 325 285V45C325 22.9086 307.091 5 285 5H45C22.9086 5 5 22.9086 5 45V285C5 307.091 22.9086 325 45 325Z" stroke="#15F0BC" stroke-width="10"/>
</svg>
